<svg width="1884" height="1023" xmlns="http://www.w3.org/2000/svg" xmlns:xlink="http://www.w3.org/1999/xlink" xml:space="preserve" overflow="hidden"><defs><clipPath id="clip0"><rect x="257" y="1185" width="1884" height="1023"/></clipPath></defs><g clip-path="url(#clip0)" transform="translate(-257 -1185)"><text fill="#221E1F" font-family="Arial,Arial_MSFontService,sans-serif" font-weight="400" font-size="32" transform="matrix(1 0 0 1 410.987 1282)">C<tspan font-size="32" x="22.9167" y="0">RI</tspan><tspan font-size="32" x="17.875" y="43">Starting </tspan><tspan font-size="32" x="137.615" y="43">pause container</tspan><tspan font-size="32" x="17.875" y="91">Pulling container image  </tspan><tspan font-size="32" x="17.875" y="146">Idle</tspan><tspan font-size="32" x="0" y="191">CNI</tspan><tspan font-size="32" x="-1.14584" y="239">Binding pause </tspan><tspan font-size="32" x="207.052" y="239">to</tspan><tspan font-size="32" x="243.604" y="239">namespace</tspan><tspan font-size="32" x="-1.14584" y="287">Idle  </tspan><tspan font-size="32" x="0" y="336">Kubelet</tspan><tspan font-size="32" x="17.875" y="388">Setting </tspan><tspan font-size="32" x="126.729" y="388">up namespaces</tspan><tspan font-size="32" x="17.875" y="445">Watching </tspan><tspan font-size="32" x="158.469" y="445">API</tspan><tspan font-size="32" x="217.135" y="445">server</tspan></text><path d="M959.354 2099 961.646 2099" stroke="#A7A9AC" stroke-width="4.58333" stroke-linejoin="round" stroke-miterlimit="10" fill="none" fill-rule="evenodd"/><path d="M960 1244 960 2091.93" stroke="#A7A9AC" stroke-width="2.29167" stroke-linejoin="round" stroke-miterlimit="10" stroke-dasharray="6.875 2.29167" fill="none" fill-rule="evenodd"/><path d="M1087.35 2099 1089.65 2099" stroke="#A7A9AC" stroke-width="4.58333" stroke-linejoin="round" stroke-miterlimit="10" fill="none" fill-rule="evenodd"/><path d="M1088 1244 1088 2091.93" stroke="#A7A9AC" stroke-width="2.29167" stroke-linejoin="round" stroke-miterlimit="10" stroke-dasharray="6.875 2.29167" fill="none" fill-rule="evenodd"/><path d="M1216.35 2099 1218.65 2099" stroke="#A7A9AC" stroke-width="4.58333" stroke-linejoin="round" stroke-miterlimit="10" fill="none" fill-rule="evenodd"/><path d="M1217 1244 1217 2091.93" stroke="#A7A9AC" stroke-width="2.29167" stroke-linejoin="round" stroke-miterlimit="10" stroke-dasharray="6.875 2.29167" fill="none" fill-rule="evenodd"/><path d="M1345.35 2099 1347.65 2099" stroke="#A7A9AC" stroke-width="4.58333" stroke-linejoin="round" stroke-miterlimit="10" fill="none" fill-rule="evenodd"/><path d="M1346 1244 1346 2091.93" stroke="#A7A9AC" stroke-width="2.29167" stroke-linejoin="round" stroke-miterlimit="10" stroke-dasharray="6.875 2.29167" fill="none" fill-rule="evenodd"/><path d="M1474.35 2099 1476.65 2099" stroke="#A7A9AC" stroke-width="4.58333" stroke-linejoin="round" stroke-miterlimit="10" fill="none" fill-rule="evenodd"/><path d="M1475 1244 1475 2091.93" stroke="#A7A9AC" stroke-width="2.29167" stroke-linejoin="round" stroke-miterlimit="10" stroke-dasharray="6.875 2.29167" fill="none" fill-rule="evenodd"/><path d="M1602.35 2099 1604.65 2099" stroke="#A7A9AC" stroke-width="4.58333" stroke-linejoin="round" stroke-miterlimit="10" fill="none" fill-rule="evenodd"/><path d="M1603 1244 1603 2091.93" stroke="#A7A9AC" stroke-width="2.29167" stroke-linejoin="round" stroke-miterlimit="10" stroke-dasharray="6.875 2.29167" fill="none" fill-rule="evenodd"/><path d="M1731.35 2099 1733.65 2099" stroke="#A7A9AC" stroke-width="4.58333" stroke-linejoin="round" stroke-miterlimit="10" fill="none" fill-rule="evenodd"/><path d="M1732 1244 1732 2091.93" stroke="#A7A9AC" stroke-width="2.29167" stroke-linejoin="round" stroke-miterlimit="10" stroke-dasharray="6.875 2.29167" fill="none" fill-rule="evenodd"/><path d="M1860.35 2099 1862.65 2099" stroke="#A7A9AC" stroke-width="4.58333" stroke-linejoin="round" stroke-miterlimit="10" fill="none" fill-rule="evenodd"/><path d="M1861 1244 1861 2091.93" stroke="#A7A9AC" stroke-width="2.29167" stroke-linejoin="round" stroke-miterlimit="10" stroke-dasharray="6.875 2.29167" fill="none" fill-rule="evenodd"/><path d="M1988.35 2099 1990.65 2099" stroke="#A7A9AC" stroke-width="4.58333" stroke-linejoin="round" stroke-miterlimit="10" fill="none" fill-rule="evenodd"/><path d="M1989 1244 1989 2091.93" stroke="#A7A9AC" stroke-width="2.29167" stroke-linejoin="round" stroke-miterlimit="10" stroke-dasharray="6.875 2.29167" fill="none" fill-rule="evenodd"/><path d="M2117.35 2099 2119.65 2099" stroke="#A7A9AC" stroke-width="4.58333" stroke-linejoin="round" stroke-miterlimit="10" fill="none" fill-rule="evenodd"/><path d="M2118 1244 2118 2091.93" stroke="#A7A9AC" stroke-width="2.29167" stroke-linejoin="round" stroke-miterlimit="10" stroke-dasharray="6.875 2.29167" fill="none" fill-rule="evenodd"/><path d="M830.354 2099 832.646 2099" stroke="#A7A9AC" stroke-width="4.58333" stroke-linejoin="round" stroke-miterlimit="10" fill="none" fill-rule="evenodd"/><path d="M831 1244 831 2091.93" stroke="#A7A9AC" stroke-width="2.29167" stroke-linejoin="round" stroke-miterlimit="10" stroke-dasharray="6.875 2.29167" fill="none" fill-rule="evenodd"/><text fill="#221E1F" font-family="Arial,Arial_MSFontService,sans-serif" font-weight="400" font-size="32" transform="matrix(1 0 0 1 686.844 1794)">Running  <tspan font-size="32" x="0" y="55">Idle</tspan><tspan font-size="32" x="26.776" y="142">Ready  </tspan><tspan font-size="32" x="26.776" y="197">Live  </tspan><tspan font-size="32" x="26.776" y="252">Idle</tspan><tspan font-size="32" x="641.042" y="358">30</tspan><tspan font-size="32" x="774.417" y="358">35</tspan><tspan font-size="32" x="898.463" y="358">40</tspan><tspan font-size="32" x="1027.17" y="358">45</tspan><tspan font-size="32" x="1155.87" y="358">50</tspan><tspan font-size="32" x="-275.857" y="-23">Pause</tspan><tspan font-size="32" x="-275.857" y="127">App</tspan></text><path d="M430 1590 2130.93 1590" stroke="#231F20" stroke-width="2.29167" stroke-linejoin="round" stroke-miterlimit="10" fill="none" fill-rule="evenodd"/><path d="M430 1438 2130.93 1438" stroke="#231F20" stroke-width="2.29167" stroke-linejoin="round" stroke-miterlimit="10" fill="none" fill-rule="evenodd"/><path d="M430 1741 2130.93 1741" stroke="#231F20" stroke-width="2.29167" stroke-linejoin="round" stroke-miterlimit="10" fill="none" fill-rule="evenodd"/><path d="M430 1891 2130.93 1891" stroke="#231F20" stroke-width="2.29167" stroke-linejoin="round" stroke-miterlimit="10" fill="none" fill-rule="evenodd"/><path d="M464.181 1288.86 402 1288.86 402 1244 491.944 1244 464.181 1288.86Z" stroke="#231F20" stroke-width="2.29167" stroke-linejoin="round" stroke-miterlimit="10" fill="none" fill-rule="evenodd"/><path d="M464.181 1482.86 402 1482.86 402 1438 491.944 1438 464.181 1482.86Z" stroke="#231F20" stroke-width="2.29167" stroke-linejoin="round" stroke-miterlimit="10" fill="none" fill-rule="evenodd"/><path d="M534.189 1634.86 402 1634.86 402 1590 561.775 1590 534.189 1634.86Z" stroke="#231F20" stroke-width="2.29167" stroke-linejoin="round" stroke-miterlimit="10" fill="none" fill-rule="evenodd"/><path d="M507.272 1785.86 402 1785.86 402 1741 534.885 1741 507.272 1785.86Z" stroke="#231F20" stroke-width="2.29167" stroke-linejoin="round" stroke-miterlimit="10" fill="none" fill-rule="evenodd"/><path d="M472.409 1935.86 402 1935.86 402 1891 499.885 1891 472.409 1935.86Z" stroke="#231F20" stroke-width="2.29167" stroke-linejoin="round" stroke-miterlimit="10" fill="none" fill-rule="evenodd"/><path d="M831 2116.92 831 2100 2117.97 2100 2117.97 2116.92" stroke="#231F20" stroke-width="2.29131" stroke-linejoin="round" stroke-miterlimit="10" fill="none" fill-rule="evenodd"/><path d="M960 2116.92 960 2100" stroke="#231F20" stroke-width="2.29167" stroke-linejoin="round" stroke-miterlimit="10" fill="none" fill-rule="evenodd"/><path d="M1088 2116.92 1088 2100" stroke="#231F20" stroke-width="2.29167" stroke-linejoin="round" stroke-miterlimit="10" fill="none" fill-rule="evenodd"/><path d="M1217 2116.92 1217 2100" stroke="#231F20" stroke-width="2.29167" stroke-linejoin="round" stroke-miterlimit="10" fill="none" fill-rule="evenodd"/><path d="M1346 2116.92 1346 2100" stroke="#231F20" stroke-width="2.29167" stroke-linejoin="round" stroke-miterlimit="10" fill="none" fill-rule="evenodd"/><path d="M1475 2116.92 1475 2100" stroke="#231F20" stroke-width="2.29167" stroke-linejoin="round" stroke-miterlimit="10" fill="none" fill-rule="evenodd"/><path d="M1603 2116.92 1603 2100" stroke="#231F20" stroke-width="2.29167" stroke-linejoin="round" stroke-miterlimit="10" fill="none" fill-rule="evenodd"/><path d="M1732 2116.92 1732 2100" stroke="#231F20" stroke-width="2.29167" stroke-linejoin="round" stroke-miterlimit="10" fill="none" fill-rule="evenodd"/><path d="M1861 2116.92 1861 2100" stroke="#231F20" stroke-width="2.29167" stroke-linejoin="round" stroke-miterlimit="10" fill="none" fill-rule="evenodd"/><text fill="#221E1F" font-family="Arial,Arial_MSFontService,sans-serif" font-weight="400" font-size="32" transform="matrix(1 0 0 1 1971.55 2152)">55</text><path d="M1989 2116.92 1989 2100" stroke="#231F20" stroke-width="2.29167" stroke-linejoin="round" stroke-miterlimit="10" fill="none" fill-rule="evenodd"/><path d="M831.5 1418.35 1088.97 1418.35 1088.97 1364.73 1217.71 1364.73 1217.71 1309.5 1346.45 1309.5 1346.45 1418.35 1732.66 1418.35 1732.66 1364.73 1861.39 1364.73 1861.39 1418.35 2131.47 1418.35" stroke="#C2DB75" stroke-width="3.43714" stroke-linejoin="round" stroke-miterlimit="10" fill="none" fill-rule="evenodd"/><path d="M831.5 1563.43 1603.92 1563.43 1603.92 1509.5 1732.66 1509.5 1732.66 1563.43 2131.47 1563.43" stroke="#C2DB75" stroke-width="3.4375" stroke-linejoin="round" stroke-miterlimit="10" fill="none" fill-rule="evenodd"/><path d="M831.5 1716.43 960.239 1716.43 960.239 1661.5 1088.97 1661.5 1088.97 1716.43 2131.47 1716.43" stroke="#C2DB75" stroke-width="3.4375" stroke-linejoin="round" stroke-miterlimit="10" fill="none" fill-rule="evenodd"/><path d="M831.5 1848.43 1346.44 1848.43 1346.44 1794.5 2131.47 1794.5" stroke="#C2DB75" stroke-width="3.4375" stroke-linejoin="round" stroke-miterlimit="10" fill="none" fill-rule="evenodd"/><path d="M831.5 2045.43 1861.39 2045.43 1861.39 1990.17 1990.13 1990.17 1990.13 1936.5 2131.47 1936.5" stroke="#C2DB75" stroke-width="3.4375" stroke-linejoin="round" stroke-miterlimit="10" fill="none" fill-rule="evenodd"/><path d="M2130.95 2102.87 2130.95 1244 404 1244 404 2102.87" stroke="#231F20" stroke-width="2.27759" stroke-linejoin="round" stroke-miterlimit="10" fill="none" fill-rule="evenodd"/><text fill="#221E1F" font-family="Arial,Arial_MSFontService,sans-serif" font-weight="400" font-size="32" transform="matrix(1 0 0 1 813.037 2152)">10<tspan font-size="32" x="128.563" y="0">15</tspan><tspan font-size="32" x="257.354" y="0">20</tspan><tspan font-size="32" x="385.917" y="0">25</tspan></text></g></svg>