<svg width="1795" height="753" xmlns="http://www.w3.org/2000/svg" xmlns:xlink="http://www.w3.org/1999/xlink" xml:space="preserve" overflow="hidden"><defs><clipPath id="clip0"><rect x="356" y="1684" width="1795" height="753"/></clipPath></defs><g clip-path="url(#clip0)" transform="translate(-356 -1684)"><path d="M1083.35 2356 1085.65 2356" stroke="#A7A9AC" stroke-width="4.58333" stroke-linejoin="round" stroke-miterlimit="10" fill="none" fill-rule="evenodd"/><path d="M1084 1695 1084 2348.78" stroke="#A7A9AC" stroke-width="2.29167" stroke-linejoin="round" stroke-miterlimit="10" stroke-dasharray="6.875 2.29167" fill="none" fill-rule="evenodd"/><path d="M1212.35 2356 1214.65 2356" stroke="#A7A9AC" stroke-width="4.58333" stroke-linejoin="round" stroke-miterlimit="10" fill="none" fill-rule="evenodd"/><path d="M1213 1695 1213 2348.78" stroke="#A7A9AC" stroke-width="2.29167" stroke-linejoin="round" stroke-miterlimit="10" stroke-dasharray="6.875 2.29167" fill="none" fill-rule="evenodd"/><path d="M1341.35 2356 1343.65 2356" stroke="#A7A9AC" stroke-width="4.58333" stroke-linejoin="round" stroke-miterlimit="10" fill="none" fill-rule="evenodd"/><path d="M1342 1695 1342 2348.78" stroke="#A7A9AC" stroke-width="2.29167" stroke-linejoin="round" stroke-miterlimit="10" stroke-dasharray="6.875 2.29167" fill="none" fill-rule="evenodd"/><path d="M1469.35 2356 1471.65 2356" stroke="#A7A9AC" stroke-width="4.58333" stroke-linejoin="round" stroke-miterlimit="10" fill="none" fill-rule="evenodd"/><path d="M1470 1695 1470 2348.78" stroke="#A7A9AC" stroke-width="2.29167" stroke-linejoin="round" stroke-miterlimit="10" stroke-dasharray="6.875 2.29167" fill="none" fill-rule="evenodd"/><path d="M1598.35 2356 1600.65 2356" stroke="#A7A9AC" stroke-width="4.58333" stroke-linejoin="round" stroke-miterlimit="10" fill="none" fill-rule="evenodd"/><path d="M1599 1695 1599 2348.78" stroke="#A7A9AC" stroke-width="2.29167" stroke-linejoin="round" stroke-miterlimit="10" stroke-dasharray="6.875 2.29167" fill="none" fill-rule="evenodd"/><path d="M1727.35 2356 1729.65 2356" stroke="#A7A9AC" stroke-width="4.58333" stroke-linejoin="round" stroke-miterlimit="10" fill="none" fill-rule="evenodd"/><path d="M1728 1695 1728 2348.78" stroke="#A7A9AC" stroke-width="2.29167" stroke-linejoin="round" stroke-miterlimit="10" stroke-dasharray="6.875 2.29167" fill="none" fill-rule="evenodd"/><path d="M1856.35 2356 1858.65 2356" stroke="#A7A9AC" stroke-width="4.58333" stroke-linejoin="round" stroke-miterlimit="10" fill="none" fill-rule="evenodd"/><path d="M1857 1695 1857 2348.78" stroke="#A7A9AC" stroke-width="2.29167" stroke-linejoin="round" stroke-miterlimit="10" stroke-dasharray="6.875 2.29167" fill="none" fill-rule="evenodd"/><path d="M1984.35 2356 1986.65 2356" stroke="#A7A9AC" stroke-width="4.58333" stroke-linejoin="round" stroke-miterlimit="10" fill="none" fill-rule="evenodd"/><path d="M1985 1695 1985 2348.78" stroke="#A7A9AC" stroke-width="2.29167" stroke-linejoin="round" stroke-miterlimit="10" stroke-dasharray="6.875 2.29167" fill="none" fill-rule="evenodd"/><path d="M2113.35 2356 2115.65 2356" stroke="#A7A9AC" stroke-width="4.58333" stroke-linejoin="round" stroke-miterlimit="10" fill="none" fill-rule="evenodd"/><path d="M2114 1695 2114 2348.78" stroke="#A7A9AC" stroke-width="2.29167" stroke-linejoin="round" stroke-miterlimit="10" stroke-dasharray="6.875 2.29167" fill="none" fill-rule="evenodd"/><path d="M955.354 2356 957.646 2356" stroke="#A7A9AC" stroke-width="4.58333" stroke-linejoin="round" stroke-miterlimit="10" fill="none" fill-rule="evenodd"/><path d="M956 1695 956 2348.78" stroke="#A7A9AC" stroke-width="2.29167" stroke-linejoin="round" stroke-miterlimit="10" stroke-dasharray="6.875 2.29167" fill="none" fill-rule="evenodd"/><text fill="#221E1F" font-family="Arial,Arial_MSFontService,sans-serif" font-weight="400" font-size="32" transform="matrix(1 0 0 1 527.963 1761)">Binding pause <tspan font-size="32" x="208.198" y="0">to </tspan>namespace  <tspan font-size="32" x="0" y="55">Idle</tspan><tspan font-size="32" x="295.35" y="297">Running  </tspan><tspan font-size="32" x="295.35" y="352">Idle</tspan><tspan font-size="32" x="154.477" y="447">Running  </tspan><tspan font-size="32" x="154.477" y="506">ContainerCreating  </tspan><tspan font-size="32" x="154.477" y="566">Pending</tspan><tspan font-size="32" x="409.539" y="649">10</tspan><tspan font-size="32" x="538.331" y="649">15</tspan><tspan font-size="32" x="666.893" y="649">20</tspan><tspan font-size="32" x="795.823" y="649">25</tspan><tspan font-size="32" x="924.526" y="649">30</tspan><tspan font-size="32" x="1310.66" y="649">45</tspan><tspan font-size="32" x="1439.37" y="649">50</tspan><tspan font-size="32" x="-151.686" y="-36">CNI</tspan><tspan font-size="32" x="-151.8" y="117">Kubelet</tspan><tspan font-size="32" x="-117.425" y="162">Setting </tspan><tspan font-size="32" x="-8.5708" y="162">up namespaces and cgroups  </tspan><tspan font-size="32" x="-117.425" y="208">Watching </tspan><tspan font-size="32" x="23.1688" y="208">API</tspan><tspan font-size="32" x="81.6063" y="208">server</tspan><tspan font-size="32" x="-151.686" y="268">Pause</tspan><tspan font-size="32" x="-151.686" y="417">Pod</tspan></text><path d="M368 1848 2126.84 1848" stroke="#231F20" stroke-width="2.29167" stroke-linejoin="round" stroke-miterlimit="10" fill="none" fill-rule="evenodd"/><path d="M368 1999 2126.84 1999" stroke="#231F20" stroke-width="2.29167" stroke-linejoin="round" stroke-miterlimit="10" fill="none" fill-rule="evenodd"/><path d="M368 2148 2126.84 2148" stroke="#231F20" stroke-width="2.29167" stroke-linejoin="round" stroke-miterlimit="10" fill="none" fill-rule="evenodd"/><path d="M429.49 1739.87 368 1739.87 368 1695 456.945 1695 429.49 1739.87Z" stroke="#231F20" stroke-width="2.29167" stroke-linejoin="round" stroke-miterlimit="10" fill="none" fill-rule="evenodd"/><path d="M499.362 1892.86 368 1892.86 368 1848 526.776 1848 499.362 1892.86Z" stroke="#231F20" stroke-width="2.29167" stroke-linejoin="round" stroke-miterlimit="10" fill="none" fill-rule="evenodd"/><path d="M472.481 2043.86 368 2043.86 368 1999 499.886 1999 472.481 2043.86Z" stroke="#231F20" stroke-width="2.29131" stroke-linejoin="round" stroke-miterlimit="10" fill="none" fill-rule="evenodd"/><path d="M438.409 2192.87 368 2192.87 368 2148 465.885 2148 438.409 2192.87Z" stroke="#231F20" stroke-width="2.29131" stroke-linejoin="round" stroke-miterlimit="10" fill="none" fill-rule="evenodd"/><path d="M956 2373.93 956 2358 2113.82 2358 2113.82 2373.93" stroke="#231F20" stroke-width="2.29167" stroke-linejoin="round" stroke-miterlimit="10" fill="none" fill-rule="evenodd"/><path d="M1084 2373.93 1084 2358" stroke="#231F20" stroke-width="2.29167" stroke-linejoin="round" stroke-miterlimit="10" fill="none" fill-rule="evenodd"/><path d="M1213 2373.93 1213 2358" stroke="#231F20" stroke-width="2.29167" stroke-linejoin="round" stroke-miterlimit="10" fill="none" fill-rule="evenodd"/><path d="M1342 2373.93 1342 2358" stroke="#231F20" stroke-width="2.29167" stroke-linejoin="round" stroke-miterlimit="10" fill="none" fill-rule="evenodd"/><path d="M1470 2373.93 1470 2358" stroke="#231F20" stroke-width="2.29167" stroke-linejoin="round" stroke-miterlimit="10" fill="none" fill-rule="evenodd"/><path d="M1599 2373.93 1599 2358" stroke="#231F20" stroke-width="2.29167" stroke-linejoin="round" stroke-miterlimit="10" fill="none" fill-rule="evenodd"/><path d="M1728 2373.93 1728 2358" stroke="#231F20" stroke-width="2.29167" stroke-linejoin="round" stroke-miterlimit="10" fill="none" fill-rule="evenodd"/><path d="M1857 2373.93 1857 2358" stroke="#231F20" stroke-width="2.29167" stroke-linejoin="round" stroke-miterlimit="10" fill="none" fill-rule="evenodd"/><path d="M1985 2373.93 1985 2358" stroke="#231F20" stroke-width="2.29167" stroke-linejoin="round" stroke-miterlimit="10" fill="none" fill-rule="evenodd"/><path d="M956.5 1814.28 1471.09 1814.28 1471.09 1756.5 1857.03 1756.5 1857.03 1814.28 2114.32 1814.28" stroke="#C2DB75" stroke-width="6.875" stroke-linejoin="round" stroke-miterlimit="10" fill="none" fill-rule="evenodd"/><path d="M956.5 1964.44 1085.15 1964.44 1085.15 1905.5 1213.79 1905.5 1213.79 1964.44 2114.32 1964.44" stroke="#C2DB75" stroke-width="6.875" stroke-linejoin="round" stroke-miterlimit="10" fill="none" fill-rule="evenodd"/><path d="M956.5 2113.49 1471.09 2113.49 1471.09 2055.5 2114.32 2055.5" stroke="#C2DB75" stroke-width="6.875" stroke-linejoin="round" stroke-miterlimit="10" fill="none" fill-rule="evenodd"/><path d="M956.5 2325.28 1085.15 2325.28 1085.15 2266.89 1985.68 2266.89 1985.68 2208.5 2114.32 2208.5" stroke="#C2DB75" stroke-width="6.875" stroke-linejoin="round" stroke-miterlimit="10" fill="none" fill-rule="evenodd"/><path d="M2126.84 2359.94 2126.84 1695 368 1695 368 2359.94" stroke="#231F20" stroke-width="2.29167" stroke-linejoin="round" stroke-miterlimit="10" fill="none" fill-rule="evenodd"/><text fill="#221E1F" font-family="Arial,Arial_MSFontService,sans-serif" font-weight="400" font-size="32" transform="matrix(1 0 0 1 1581.28 2410)">35<tspan font-size="32" x="128.699" y="0">40</tspan><tspan font-size="32" x="514.835" y="0">55</tspan></text></g></svg>