<svg width="1782" height="372" xmlns="http://www.w3.org/2000/svg" xmlns:xlink="http://www.w3.org/1999/xlink" xml:space="preserve" overflow="hidden"><defs><clipPath id="clip0"><rect x="350" y="1201" width="1782" height="372"/></clipPath></defs><g clip-path="url(#clip0)" transform="translate(-350 -1201)"><path d="M1912.91 1348.96 1891.15 1370.77 1242 1223.81 1263.76 1202 1912.91 1202 1912.91 1348.96Z" stroke="#221E1F" stroke-width="2.29167" stroke-linejoin="round" stroke-miterlimit="10" fill="none" fill-rule="evenodd"/><path d="M1891 1224 1913 1202" stroke="#221E1F" stroke-width="2.29167" stroke-linejoin="round" stroke-miterlimit="10" fill="none" fill-rule="evenodd"/><path d="M1890.91 1370.77 1242 1370.77 1242 1224 1890.91 1224 1890.91 1370.77Z" stroke="#221E1F" stroke-width="2.29167" stroke-linejoin="round" stroke-miterlimit="10" fill="none" fill-rule="evenodd"/><path d="M2130.88 1549.96 2109.07 1571.77 1867 1424.81 1888.81 1403 2130.88 1403 2130.88 1549.96Z" stroke="#221E1F" stroke-width="2.29167" stroke-linejoin="round" stroke-miterlimit="10" fill="none" fill-rule="evenodd"/><path d="M2109 1425 2131 1403" stroke="#221E1F" stroke-width="2.29167" stroke-linejoin="round" stroke-miterlimit="10" fill="none" fill-rule="evenodd"/><path d="M1867 1571.78 2108.88 1571.78 2108.88 1425 1867 1425 1867 1571.78Z" fill="#FFFFFF" fill-rule="evenodd"/><path d="M2108.88 1571.78 1867 1571.78 1867 1425 2108.88 1425 2108.88 1571.78Z" stroke="#221E1F" stroke-width="2.29167" stroke-linejoin="round" stroke-miterlimit="10" fill="none" fill-rule="evenodd"/><path d="M1834.93 1549.96 1813.12 1571.77 1538 1424.81 1559.8 1403 1834.93 1403 1834.93 1549.96Z" stroke="#221E1F" stroke-width="2.29167" stroke-linejoin="round" stroke-miterlimit="10" fill="none" fill-rule="evenodd"/><path d="M1813 1425 1835 1403" stroke="#221E1F" stroke-width="2.29167" stroke-linejoin="round" stroke-miterlimit="10" fill="none" fill-rule="evenodd"/><path d="M1538 1571.78 1812.93 1571.78 1812.93 1425 1538 1425 1538 1571.78Z" fill="#FFFFFF" fill-rule="evenodd"/><path d="M1812.93 1571.78 1538 1571.78 1538 1425 1812.93 1425 1812.93 1571.78Z" stroke="#221E1F" stroke-width="2.29131" stroke-linejoin="round" stroke-miterlimit="10" fill="none" fill-rule="evenodd"/><path d="M634.785 1549.96 613.033 1571.77 352 1424.81 373.756 1403 634.785 1403 634.785 1549.96Z" stroke="#221E1F" stroke-width="2.29167" stroke-linejoin="round" stroke-miterlimit="10" fill="none" fill-rule="evenodd"/><path d="M613 1425 635 1403" stroke="#221E1F" stroke-width="2.29167" stroke-linejoin="round" stroke-miterlimit="10" fill="none" fill-rule="evenodd"/><path d="M352 1571.78 612.78 1571.78 612.78 1425 352 1425 352 1571.78Z" fill="#FFFFFF" fill-rule="evenodd"/><path d="M612.78 1571.78 352 1571.78 352 1425 612.78 1425 612.78 1571.78Z" stroke="#221E1F" stroke-width="2.29167" stroke-linejoin="round" stroke-miterlimit="10" fill="none" fill-rule="evenodd"/><path d="M1505.81 1549.96 1484.04 1571.77 668 1424.81 689.773 1403 1505.81 1403 1505.81 1549.96Z" stroke="#221E1F" stroke-width="2.29167" stroke-linejoin="round" stroke-miterlimit="10" fill="none" fill-rule="evenodd"/><path d="M1484 1425 1506 1403" stroke="#221E1F" stroke-width="2.29167" stroke-linejoin="round" stroke-miterlimit="10" fill="none" fill-rule="evenodd"/><path d="M668 1571.78 1483.81 1571.78 1483.81 1425 668 1425 668 1571.78Z" fill="#FFFFFF" fill-rule="evenodd"/><path d="M1483.81 1571.78 668 1571.78 668 1425 1483.81 1425 1483.81 1571.78Z" stroke="#221E1F" stroke-width="2.29167" stroke-linejoin="round" stroke-miterlimit="10" fill="none" fill-rule="evenodd"/><path d="M1272 1345.81 1389.88 1345.81 1389.88 1272 1272 1272 1272 1345.81Z" fill="#FEFAD7" fill-rule="evenodd"/><path d="M1380.84 1298.86 1354 1298.86 1354 1281 1380.84 1281 1380.84 1298.86Z" stroke="#221E1F" stroke-width="2.29167" stroke-linejoin="round" stroke-miterlimit="10" fill="none" fill-rule="evenodd"/><path d="M1349 1287.86 1357.76 1287.86 1357.76 1285 1349 1285 1349 1287.86Z" fill="#221E1F" fill-rule="evenodd"/><path d="M1349 1294.9 1357.76 1294.9 1357.76 1293 1349 1293 1349 1294.9Z" fill="#221E1F" fill-rule="evenodd"/><path d="M399 1345.81 567.926 1345.81 567.926 1272 399 1272 399 1345.81Z" fill="#FEFAD7" fill-rule="evenodd"/><path d="M558.842 1298.86 532 1298.86 532 1281 558.842 1281 558.842 1298.86Z" stroke="#221E1F" stroke-width="2.29167" stroke-linejoin="round" stroke-miterlimit="10" fill="none" fill-rule="evenodd"/><path d="M527 1287.86 535.762 1287.86 535.762 1285 527 1285 527 1287.86Z" fill="#221E1F" fill-rule="evenodd"/><path d="M527 1294.91 535.762 1294.91 535.762 1293 527 1293 527 1294.91Z" fill="#221E1F" fill-rule="evenodd"/><path d="M410 1545.81 554.812 1545.81 554.812 1473 410 1473 410 1545.81Z" fill="#FEFAD7" fill-rule="evenodd"/><path d="M554.812 1545.81 410 1545.81 410 1473 554.812 1473 554.812 1545.81Z" stroke="#221E1F" stroke-width="2.29167" stroke-linejoin="round" stroke-miterlimit="10" fill="none" fill-rule="evenodd"/><path d="M545.842 1499.86 519 1499.86 519 1482 545.842 1482 545.842 1499.86Z" stroke="#221E1F" stroke-width="2.29167" stroke-linejoin="round" stroke-miterlimit="10" fill="none" fill-rule="evenodd"/><path d="M514 1488.85 521.788 1488.85 521.788 1486 514 1486 514 1488.85Z" fill="#221E1F" fill-rule="evenodd"/><path d="M514 1495.85 521.788 1495.85 521.788 1493 514 1493 514 1495.85Z" fill="#221E1F" fill-rule="evenodd"/><path d="M692 1545.81 899.931 1545.81 899.931 1473 692 1473 692 1545.81Z" stroke="#000000" stroke-width="2.29167" stroke-linejoin="round" stroke-miterlimit="10" fill="#FEFAD7" fill-rule="evenodd"/><path d="M890.848 1499.86 865 1499.86 865 1482 890.848 1482 890.848 1499.86Z" stroke="#221E1F" stroke-width="2.29167" stroke-linejoin="round" stroke-miterlimit="10" fill="none" fill-rule="evenodd"/><path d="M859 1488.85 867.762 1488.85 867.762 1486 859 1486 859 1488.85Z" fill="#221E1F" fill-rule="evenodd"/><path d="M859 1495.85 867.762 1495.85 867.762 1493 859 1493 859 1495.85Z" fill="#221E1F" fill-rule="evenodd"/><path d="M951 1545.81 1188.93 1545.81 1188.93 1473 951 1473 951 1545.81Z" stroke="#000000" stroke-width="2.29167" stroke-linejoin="round" stroke-miterlimit="10" fill="#FEFAD7" fill-rule="evenodd"/><path d="M1178.85 1499.86 1153 1499.86 1153 1482 1178.85 1482 1178.85 1499.86Z" stroke="#221E1F" stroke-width="2.29167" stroke-linejoin="round" stroke-miterlimit="10" fill="none" fill-rule="evenodd"/><path d="M1148 1488.85 1155.79 1488.85 1155.79 1486 1148 1486 1148 1488.85Z" fill="#221E1F" fill-rule="evenodd"/><path d="M1148 1495.85 1155.79 1495.85 1155.79 1493 1148 1493 1148 1495.85Z" fill="#221E1F" fill-rule="evenodd"/><path d="M1239 1545.81 1463.93 1545.81 1463.93 1473 1239 1473 1239 1545.81Z" fill="#FEFAD7" fill-rule="evenodd"/><path d="M1454.84 1499.86 1428 1499.86 1428 1482 1454.84 1482 1454.84 1499.86Z" stroke="#221E1F" stroke-width="2.29167" stroke-linejoin="round" stroke-miterlimit="10" fill="none" fill-rule="evenodd"/><path d="M1423 1488.85 1431.76 1488.85 1431.76 1486 1423 1486 1423 1488.85Z" fill="#221E1F" fill-rule="evenodd"/><path d="M1423 1495.85 1431.76 1495.85 1431.76 1493 1423 1493 1423 1495.85Z" fill="#221E1F" fill-rule="evenodd"/><path d="M1589 1545.81 1761.95 1545.81 1761.95 1473 1589 1473 1589 1545.81Z" fill="#FEFAD7" fill-rule="evenodd"/><path d="M1752.84 1499.86 1727 1499.86 1727 1482 1752.84 1482 1752.84 1499.86Z" stroke="#221E1F" stroke-width="2.29167" stroke-linejoin="round" stroke-miterlimit="10" fill="none" fill-rule="evenodd"/><path d="M1721 1488.85 1729.76 1488.85 1729.76 1486 1721 1486 1721 1488.85Z" fill="#221E1F" fill-rule="evenodd"/><path d="M1721 1495.85 1729.76 1495.85 1729.76 1493 1721 1493 1721 1495.85Z" fill="#221E1F" fill-rule="evenodd"/><path d="M1916 1545.81 2059.98 1545.81 2059.98 1473 1916 1473 1916 1545.81Z" fill="#FEFAD7" fill-rule="evenodd"/><path d="M2050.85 1499.86 2025 1499.86 2025 1482 2050.85 1482 2050.85 1499.86Z" stroke="#221E1F" stroke-width="2.29167" stroke-linejoin="round" stroke-miterlimit="10" fill="none" fill-rule="evenodd"/><path d="M2020 1488.85 2027.79 1488.85 2027.79 1486 2020 1486 2020 1488.85Z" fill="#221E1F" fill-rule="evenodd"/><path d="M2020 1495.85 2027.79 1495.85 2027.79 1493 2020 1493 2020 1495.85Z" fill="#221E1F" fill-rule="evenodd"/><path d="M1444 1345.81 1599.8 1345.81 1599.8 1272 1444 1272 1444 1345.81Z" fill="#FEFAD7" fill-rule="evenodd"/><path d="M1590.84 1298.86 1564 1298.86 1564 1281 1590.84 1281 1590.84 1298.86Z" stroke="#221E1F" stroke-width="2.29167" stroke-linejoin="round" stroke-miterlimit="10" fill="none" fill-rule="evenodd"/><path d="M1559 1287.86 1567 1287.86 1567 1285 1559 1285 1559 1287.86Z" fill="#221E1F" fill-rule="evenodd"/><path d="M1559 1294.9 1567 1294.9 1567 1293 1559 1293 1559 1294.9Z" fill="#221E1F" fill-rule="evenodd"/><path d="M1656 1345.81 1881.81 1345.81 1881.81 1272 1656 1272 1656 1345.81Z" fill="#FEFAD7" fill-rule="evenodd"/><path d="M1872.85 1298.86 1847 1298.86 1847 1281 1872.85 1281 1872.85 1298.86Z" stroke="#221E1F" stroke-width="2.29167" stroke-linejoin="round" stroke-miterlimit="10" fill="none" fill-rule="evenodd"/><path d="M1841 1287.86 1850 1287.86 1850 1285 1841 1285 1841 1287.86Z" fill="#221E1F" fill-rule="evenodd"/><path d="M1841 1294.9 1850 1294.9 1850 1293 1841 1293 1841 1294.9Z" fill="#221E1F" fill-rule="evenodd"/><rect x="1272" y="1272" width="118" height="74.0002" stroke="#221E1F" stroke-width="2.29167" stroke-linejoin="round" stroke-miterlimit="10" fill="none"/><text fill="#221E1F" font-family="Arial,Arial_MSFontService,sans-serif" font-weight="400" font-size="32" transform="matrix(1 0 0 1 1299.53 1330)">eth0</text><rect x="1444" y="1272" width="156" height="74.0002" stroke="#221E1F" stroke-width="2.29167" stroke-linejoin="round" stroke-miterlimit="10" fill="none"/><text fill="#221E1F" font-family="Arial,Arial_MSFontService,sans-serif" font-weight="400" font-size="32" transform="matrix(1 0 0 1 1457.41 1330)">J2EEapp</text><rect x="1656" y="1272" width="235" height="74.0002" stroke="#221E1F" stroke-width="2.29167" stroke-linejoin="round" stroke-miterlimit="10" fill="none"/><text fill="#221E1F" font-family="Arial,Arial_MSFontService,sans-serif" font-weight="400" font-size="32" transform="matrix(1 0 0 1 1670.61 1330)">storagemount<tspan font-weight="700" font-size="32" x="-178.881" y="-73">Container</tspan><tspan font-weight="700" font-size="32" x="-116.564" y="128">mysqlContainer</tspan><tspan font-weight="700" font-size="32" x="-630.558" y="128">Host</tspan><tspan font-weight="700" font-size="32" x="-1300.84" y="128">K8s </tspan><tspan font-weight="700" font-size="32" x="-1234.16" y="128">API</tspan><tspan font-weight="700" font-size="32" x="-1174.92" y="128">server</tspan></text><rect x="399" y="1272" width="169" height="74.0002" stroke="#221E1F" stroke-width="2.29167" stroke-linejoin="round" stroke-miterlimit="10" fill="none"/><text fill="#221E1F" font-family="Arial,Arial_MSFontService,sans-serif" font-weight="400" font-size="32" transform="matrix(1 0 0 1 413.833 1330)">K8s<tspan font-size="32" x="62.7917" y="0">client</tspan></text><rect x="1239" y="1473" width="225" height="72.9999" stroke="#221E1F" stroke-width="2.29167" stroke-linejoin="round" stroke-miterlimit="10" fill="none"/><text fill="#221E1F" font-family="Arial,Arial_MSFontService,sans-serif" font-weight="400" font-size="32" transform="matrix(1 0 0 1 1247.81 1531)">in_cluster_dns</text><rect x="1589" y="1473" width="173" height="72.9999" stroke="#221E1F" stroke-width="2.29167" stroke-linejoin="round" stroke-miterlimit="10" fill="none"/><text fill="#221E1F" font-family="Arial,Arial_MSFontService,sans-serif" font-weight="400" font-size="32" transform="matrix(1 0 0 1 1606.76 1531)">mysqlSvc</text><rect x="1916" y="1473" width="144" height="72.9999" stroke="#221E1F" stroke-width="2.29167" stroke-linejoin="round" stroke-miterlimit="10" fill="none"/><text fill="#221E1F" font-family="Arial,Arial_MSFontService,sans-serif" font-weight="400" font-size="32" transform="matrix(1 0 0 1 1936.29 1531)">volume<tspan font-size="32" x="-1504.49" y="0">service</tspan><tspan font-size="32" x="-1229.26" y="0">kernel_route</tspan><tspan font-size="32" x="-974.661" y="0">K8sCertificates</tspan><tspan font-weight="700" font-size="32" x="-33.1375" y="-73">NFS</tspan><tspan font-weight="700" font-size="32" x="37.3313" y="-73">server</tspan></text><path d="M1484 1510 1567.96 1510" stroke="#221E1F" stroke-width="2.29167" stroke-linejoin="round" stroke-miterlimit="10" fill="none" fill-rule="evenodd"/><path d="M1488.87 1503 1464 1509.89 1488.87 1516.78 1488.87 1503Z" fill="#221E1F" fill-rule="evenodd"/><path d="M1564 1503 1564 1516.78 1588.87 1509.89 1564 1503Z" fill="#221E1F" fill-rule="evenodd"/><path d="M1522 1345 1522 1509.92" stroke="#221E1F" stroke-width="2.29167" stroke-linejoin="round" stroke-miterlimit="10" fill="none" fill-rule="evenodd"/><path d="M1769 1345 1769 1385.44 1853.2 1385.44 1853.2 1509.92 1894.92 1509.92" stroke="#221E1F" stroke-width="2.29167" stroke-linejoin="round" stroke-miterlimit="10" fill="none" fill-rule="evenodd"/><path d="M1891 1503 1891 1516.78 1915.87 1509.89 1891 1503Z" fill="#221E1F" fill-rule="evenodd"/><path d="M1271.99 1309 796 1309 796 1452.79" stroke="#221E1F" stroke-width="2.29167" stroke-linejoin="round" stroke-miterlimit="10" fill="none" fill-rule="evenodd"/><path d="M802.802 1448 790 1448 796.403 1472.86 802.802 1448Z" fill="#221E1F" fill-rule="evenodd"/><path d="M483 1345 483 1373.3 650.995 1373.3 650.995 1505.94 574.646 1505.94" stroke="#221E1F" stroke-width="2.29167" stroke-linejoin="round" stroke-miterlimit="10" fill="none" fill-rule="evenodd"/><path d="M579.867 1499 555 1505.89 579.867 1512.78 579.867 1499Z" fill="#221E1F" fill-rule="evenodd"/></g></svg>