<svg width="1157" height="740" xmlns="http://www.w3.org/2000/svg" xmlns:xlink="http://www.w3.org/1999/xlink" xml:space="preserve" overflow="hidden"><defs><clipPath id="clip0"><rect x="442" y="1989" width="1157" height="740"/></clipPath></defs><g clip-path="url(#clip0)" transform="translate(-442 -1989)"><path d="M936 2008 936 2094.77 940.053 2100.52 951.338 2105.52 968.548 2109.46 990.371 2112.05 1015.5 2112.98 1040.63 2112.05 1062.45 2109.46 1079.66 2105.52 1090.94 2100.52 1095 2094.77 1095 2008 936 2008Z" stroke="#221E1F" stroke-width="2.29167" stroke-linejoin="round" stroke-miterlimit="10" fill="none" fill-rule="evenodd"/><path d="M1015.5 1990 990.369 1990.94 968.547 1993.57 951.338 1997.57 936 2008.48 940.053 2014.32 951.338 2019.39 968.547 2023.39 990.369 2026.01 1015.5 2026.95 1040.63 2026.01 1062.45 2023.39 1079.66 2019.39 1090.94 2014.32 1095 2008.48 1090.94 2002.64 1079.66 1997.57 1062.45 1993.57 1040.63 1990.94 1015.5 1990Z" fill="#FFFFFF" fill-rule="evenodd"/><path d="M1095 2008.48 1079.66 2019.39 1062.45 2023.39 1040.63 2026.01 1015.5 2026.95 990.369 2026.01 968.547 2023.39 951.338 2019.39 940.053 2014.32 936 2008.48 940.053 2002.64 951.338 1997.57 968.547 1993.57 990.369 1990.94 1015.5 1990 1040.63 1990.94 1062.45 1993.57 1079.66 1997.57 1090.94 2002.64 1095 2008.48Z" stroke="#221E1F" stroke-width="2.29167" stroke-linejoin="round" stroke-miterlimit="10" fill="none" fill-rule="evenodd"/><path d="M1028.85 2406.78 840 2406.78 840 2246 1028.85 2246 1028.85 2406.78Z" stroke="#231F20" stroke-width="2.29167" stroke-linejoin="round" stroke-miterlimit="10" fill="none" fill-rule="evenodd"/><path d="M1145.93 2727.78 985 2727.78 985 2647 1145.93 2647 1145.93 2727.78Z" stroke="#231F20" stroke-width="2.29167" stroke-linejoin="round" stroke-miterlimit="10" fill="none" fill-rule="evenodd"/><path d="M1498.93 2226 1480.99 2227.62 1464.1 2232.29 1448.53 2239.73 1434.58 2249.65 1422.53 2261.76 1412.66 2275.78 1405.26 2291.42 1400.61 2308.4 1399 2326.43 1400.46 2343.59 1404.68 2359.81 1411.41 2374.85 1420.41 2388.47 1431.43 2400.41 1431.34 2400.49 1434.79 2403.42 1435.02 2403.56 1436.95 2405.17 1448.3 2412.95 1448.74 2413.22 1462.77 2420.02 1481.38 2425.27 1490.79 2426.49 1493.47 2426.71 1496.18 2426.86 1501.65 2426.86 1504.34 2426.71 1507.34 2426.47 1507.68 2426.45 1508.02 2426.42 1510.69 2426.18 1513.32 2425.82 1515.93 2425.38 1516.15 2425.33 1516.39 2425.29 1534.73 2420.16 1540.72 2417.61 1540.99 2417.5 1541.27 2417.36 1543.51 2416.31 1545.7 2415.16 1558.78 2406.78 1562.2 2404.08 1562.57 2403.84 1566.23 2400.77 1566.13 2400.69 1570.45 2396.04 1560.38 2396.04 1559.86 2395.68 1437.06 2395.68 1424.28 2381.53 1414.58 2364.96 1408.42 2346.44 1406.27 2326.43 1407.76 2309.71 1412.07 2293.97 1418.94 2279.46 1428.09 2266.46 1439.26 2255.23 1452.2 2246.04 1466.63 2239.14 1482.3 2234.81 1498.93 2233.3 1535.88 2233.3 1533.76 2232.29 1516.87 2227.62 1498.93 2226Z" fill="#010202" fill-rule="evenodd"/><path d="M1535.88 2233.3 1498.93 2233.3 1515.57 2234.81 1531.23 2239.14 1545.66 2246.04 1558.6 2255.23 1569.77 2266.46 1578.93 2279.46 1585.79 2293.97 1590.1 2309.71 1591.6 2326.43 1589.41 2346.58 1583.16 2365.21 1573.33 2381.85 1560.38 2396.04 1570.45 2396.04 1586.33 2375.07 1593.13 2359.97 1597.39 2343.68 1598.86 2326.43 1597.25 2308.4 1592.6 2291.42 1585.2 2275.78 1575.33 2261.76 1563.28 2249.65 1549.33 2239.73 1535.88 2233.3Z" fill="#010202" fill-rule="evenodd"/><path d="M1498.93 2255.22 1479.83 2258.12 1466.71 2266.79 1460.33 2280.09 1459.77 2285.3 1459.87 2288.2 1459.87 2305.25 1458.49 2307.17 1457.48 2309.29 1456.85 2311.55 1456.64 2313.9 1456.64 2326.84 1456.97 2329.79 1457.92 2332.55 1459.45 2335.03 1461.51 2337.14 1464.2 2345.26 1467.4 2352.04 1470.47 2357.21 1472.75 2360.48 1472.75 2374.02 1471.13 2376.76 1438.88 2394.44 1437.97 2395.03 1437.06 2395.68 1559.86 2395.68 1559.31 2395.3 1558.24 2394.64 1523.6 2377.24 1521.89 2374.45 1521.89 2360.55 1522.6 2359.66 1523.36 2358.66 1531.73 2343.84 1533.64 2338.85 1536.77 2336.78 1539.15 2333.98 1540.68 2330.61 1541.22 2326.84 1541.22 2313.9 1541 2311.55 1540.38 2309.29 1539.37 2307.17 1537.99 2305.25 1537.99 2288.2 1535.49 2273.59 1525.35 2261.74 1509.22 2255.94 1498.93 2255.22Z" fill="#010202" fill-rule="evenodd"/><path d="M1053.87 2320 1029 2326.4 1053.87 2332.8 1053.87 2320Z" fill="#231F20" fill-rule="evenodd"/><path d="M935 2245.83 1004.9 2131" stroke="#231F20" stroke-width="2.29167" stroke-linejoin="round" stroke-miterlimit="10" fill="none" fill-rule="evenodd"/><path d="M1015.82 2113 997 2130.92 1008.49 2137.93 1015.82 2113Z" fill="#231F20" fill-rule="evenodd"/><path d="M984.99 2687.02 718 2687.78 718 2326 819.63 2326" stroke="#231F20" stroke-width="2.29167" stroke-linejoin="round" stroke-miterlimit="10" fill="none" fill-rule="evenodd"/><path d="M815 2320 815 2332.8 839.867 2326.4 815 2320Z" fill="#231F20" fill-rule="evenodd"/><path d="M1145.44 2686.87 1215.91 2686.87 1215.91 2516.69 963 2516.69 963 2427" stroke="#231F20" stroke-width="2.29167" stroke-linejoin="round" stroke-miterlimit="10" fill="none" fill-rule="evenodd"/><path d="M962.891 2407 956 2431.86 969.787 2431.86 962.891 2407Z" fill="#231F20" fill-rule="evenodd"/><text fill="#231F20" font-family="Arial,Arial_MSFontService,sans-serif" font-weight="400" font-size="32" transform="matrix(1 0 0 1 985.32 2076)">etcd<tspan font-size="32" x="-125.822" y="258">API</tspan><tspan font-size="32" x="-68.301" y="258">server</tspan><tspan font-family="Calibri,Calibri_MSFontService,sans-serif" font-weight="700" font-size="41" x="-517.532" y="423">3. </tspan><tspan font-family="Calibri,Calibri_MSFontService,sans-serif" font-weight="700" font-size="41" x="-484.417" y="423">Create </tspan><tspan font-family="Calibri,Calibri_MSFontService,sans-serif" font-weight="700" font-size="41" x="-372.011" y="423">more  </tspan><tspan font-family="Calibri,Calibri_MSFontService,sans-serif" font-weight="700" font-size="41" x="-475.136" y="469">Pods.</tspan><tspan font-family="Cambria,Cambria_MSFontService,sans-serif" font-weight="700" font-size="41" x="307.202" y="505">1</tspan><tspan font-family="Calibri,Calibri_MSFontService,sans-serif" font-weight="700" font-size="41" x="331.15" y="505">. </tspan><tspan font-family="Calibri,Calibri_MSFontService,sans-serif" font-weight="700" font-size="41" x="349.827" y="505">Watch  </tspan><tspan font-family="Calibri,Calibri_MSFontService,sans-serif" font-weight="700" font-size="41" x="349.598" y="551">Replicatio</tspan><tspan font-family="Calibri,Calibri_MSFontService,sans-serif" font-weight="700" font-size="41" x="507.723" y="551">n</tspan><tspan font-family="Calibri,Calibri_MSFontService,sans-serif" font-weight="700" font-size="41" x="528.463" y="551">-</tspan><tspan font-family="Calibri,Calibri_MSFontService,sans-serif" font-weight="700" font-size="41" x="349.598" y="597">Controller.</tspan></text><rect x="985" y="2647" width="161" height="81.0002" stroke="#231F20" stroke-width="2.29167" stroke-linejoin="round" stroke-miterlimit="10" fill="none"/><text fill="#231F20" font-family="Arial,Arial_MSFontService,sans-serif" font-weight="400" font-size="32" transform="matrix(1 0 0 1 995.546 2695)">Controller<tspan font-family="Calibri,Calibri_MSFontService,sans-serif" font-weight="700" font-size="41" x="97.1115" y="-476">2. </tspan><tspan font-family="Calibri,Calibri_MSFontService,sans-serif" font-weight="700" font-size="41" x="132.289" y="-476">kubectl</tspan><tspan font-family="Calibri,Calibri_MSFontService,sans-serif" font-weight="700" font-size="41" x="256.039" y="-476">scale</tspan><tspan font-family="Calibri,Calibri_MSFontService,sans-serif" font-weight="700" font-size="41" x="133.595" y="-430">rc</tspan><tspan font-family="Calibri,Calibri_MSFontService,sans-serif" font-weight="700" font-size="41" x="175.532" y="-430">my</tspan><tspan font-family="Calibri,Calibri_MSFontService,sans-serif" font-weight="700" font-size="41" x="225.147" y="-430">-</tspan><tspan font-family="Calibri,Calibri_MSFontService,sans-serif" font-weight="700" font-size="41" x="235.918" y="-430">app</tspan><tspan font-family="Calibri,Calibri_MSFontService,sans-serif" font-weight="700" font-size="41" x="131.716" y="-384">--</tspan><tspan font-family="Calibri,Calibri_MSFontService,sans-serif" font-weight="700" font-size="41" x="157.382" y="-384">replicas=5</tspan></text><path d="M1049.65 2315.88 1136.9 2315.88 1224.15 2315.88 1311.4 2315.88 1398.65 2315.88 1398.65 2318.88 1311.4 2318.88 1224.15 2318.88 1136.9 2318.88 1049.65 2318.88Z" fill="#231F20" fill-rule="evenodd"/><text fill="#231F20" font-family="Arial,Arial_MSFontService,sans-serif" font-weight="400" font-size="32" transform="matrix(1 0 0 1 1461.05 2463)">Actor</text></g></svg>