<svg width="916" height="668" xmlns="http://www.w3.org/2000/svg" xmlns:xlink="http://www.w3.org/1999/xlink" xml:space="preserve" overflow="hidden"><defs><clipPath id="clip0"><rect x="426" y="1503" width="916" height="668"/></clipPath></defs><g clip-path="url(#clip0)" transform="translate(-426 -1503)"><path d="M1057 1779.81 1053.33 1797.5 1043.48 1812.21 1029.05 1822.09 1011.18 1825.77 759.825 1825.77 741.953 1822.09 727.518 1812.21 717.666 1797.5 714 1779.81 714 1558.96 717.666 1541.04 727.518 1526.33 741.953 1516.45 759.825 1513 1011.18 1513 1029.05 1516.45 1043.48 1526.33 1053.33 1541.04 1057 1558.96 1057 1779.81Z" stroke="#221E1F" stroke-width="2.29167" stroke-linejoin="round" stroke-miterlimit="10" fill="none" fill-rule="evenodd"/><path d="M822.572 1581 755.198 1581 751.519 1581.92 748.759 1583.75 746.69 1586.73 746 1590.17 746 1759.77 831.77 1759.77 831.77 1590.17 831.08 1586.73 829.011 1583.75 826.251 1581.92 822.572 1581Z" fill="#2A3280" fill-rule="evenodd"/><path d="M762.5 1611.5 818.646 1611.5" stroke="#FFFFFF" stroke-width="10.6976" stroke-linejoin="round" stroke-miterlimit="10" fill="none" fill-rule="evenodd"/><path d="M762.5 1719.5 818.646 1719.5" stroke="#FFFFFF" stroke-width="10.6976" stroke-linejoin="round" stroke-miterlimit="10" fill="none" fill-rule="evenodd"/><path d="M762.5 1740.5 818.646 1740.5" stroke="#FFFFFF" stroke-width="10.6976" stroke-linejoin="round" stroke-miterlimit="10" fill="none" fill-rule="evenodd"/><path d="M918.572 1581 851.198 1581 847.519 1581.92 844.759 1583.75 842.69 1586.73 842 1590.17 842 1759.77 927.77 1759.77 927.77 1590.17 927.08 1586.73 925.011 1583.75 922.251 1581.92 918.572 1581Z" fill="#2A3280" fill-rule="evenodd"/><path d="M858.5 1611.5 914.646 1611.5" stroke="#FFFFFF" stroke-width="10.6976" stroke-linejoin="round" stroke-miterlimit="10" fill="none" fill-rule="evenodd"/><path d="M858.5 1719.5 914.646 1719.5" stroke="#FFFFFF" stroke-width="10.6976" stroke-linejoin="round" stroke-miterlimit="10" fill="none" fill-rule="evenodd"/><path d="M858.5 1740.5 914.646 1740.5" stroke="#FFFFFF" stroke-width="10.6976" stroke-linejoin="round" stroke-miterlimit="10" fill="none" fill-rule="evenodd"/><path d="M1014.68 1581 948.091 1581 944.455 1581.92 941.727 1583.75 939.682 1586.73 939 1590.17 939 1759.77 1023.77 1759.77 1023.77 1590.17 1023.09 1586.73 1021.05 1583.75 1018.32 1581.92 1014.68 1581Z" fill="#2A3280" fill-rule="evenodd"/><path d="M954.5 1611.5 1010.88 1611.5" stroke="#FFFFFF" stroke-width="10.6976" stroke-linejoin="round" stroke-miterlimit="10" fill="none" fill-rule="evenodd"/><path d="M954.5 1719.5 1010.88 1719.5" stroke="#FFFFFF" stroke-width="10.6976" stroke-linejoin="round" stroke-miterlimit="10" fill="none" fill-rule="evenodd"/><path d="M954.5 1740.5 1010.88 1740.5" stroke="#FFFFFF" stroke-width="10.6976" stroke-linejoin="round" stroke-miterlimit="10" fill="none" fill-rule="evenodd"/><text fill="#221E1F" font-family="Arial,Arial_MSFontService,sans-serif" font-weight="400" font-size="32" transform="matrix(1 0 0 1 789.708 1542)">Control plane</text><path d="M1341 2124.14 1337.33 2141.8 1327.47 2156.47 1312.8 2166.33 1295.15 2170 472.849 2170 455.197 2166.33 440.525 2156.47 430.668 2141.8 427 2124.14 427 1927.86 430.668 1909.97 440.525 1895.53 455.197 1885.67 472.849 1882 1295.15 1882 1312.8 1885.67 1327.47 1895.53 1337.33 1909.97 1341 1927.86 1341 2124.14Z" stroke="#221E1F" stroke-width="2.29167" stroke-linejoin="round" stroke-miterlimit="10" fill="none" fill-rule="evenodd"/><path d="M536.572 1946 469.198 1946 465.519 1946.69 462.529 1948.75 460.69 1951.73 460 1955.17 460 2124.77 545.77 2124.77 545.77 1955.17 545.08 1951.73 543.011 1948.75 540.251 1946.69 536.572 1946Z" fill="#2A3280" fill-rule="evenodd"/><path d="M476.5 1976.5 532.646 1976.5" stroke="#FFFFFF" stroke-width="10.6929" stroke-linejoin="round" stroke-miterlimit="10" fill="none" fill-rule="evenodd"/><path d="M476.5 2084.5 532.272 2084.5M476.5 2105.27 532.272 2105.27" stroke="#FFFFFF" stroke-width="10.6929" stroke-linejoin="round" stroke-miterlimit="10" fill="none" fill-rule="evenodd"/><path d="M645.572 1946 578.198 1946 574.519 1946.69 571.529 1948.75 569.69 1951.73 569 1955.17 569 2124.77 654.77 2124.77 654.77 1955.17 654.08 1951.73 652.01 1948.75 649.021 1946.69 645.572 1946Z" fill="#2A3280" fill-rule="evenodd"/><path d="M585.5 1976.5 641.646 1976.5" stroke="#FFFFFF" stroke-width="10.6929" stroke-linejoin="round" stroke-miterlimit="10" fill="none" fill-rule="evenodd"/><path d="M585.5 2084.5 641.272 2084.5M585.5 2105.27 641.272 2105.27" stroke="#FFFFFF" stroke-width="10.6929" stroke-linejoin="round" stroke-miterlimit="10" fill="none" fill-rule="evenodd"/><path d="M754.802 1946 687.198 1946 683.749 1946.69 680.759 1948.75 678.92 1951.73 678 1955.17 678 2124.77 764 2124.77 764 1955.17 763.31 1951.73 761.241 1948.75 758.251 1946.69 754.802 1946Z" fill="#2A3280" fill-rule="evenodd"/><path d="M693.5 1976.5 749.646 1976.5" stroke="#FFFFFF" stroke-width="10.6929" stroke-linejoin="round" stroke-miterlimit="10" fill="none" fill-rule="evenodd"/><path d="M693.5 2084.5 750.268 2084.5M693.5 2105.27 750.268 2105.27" stroke="#FFFFFF" stroke-width="10.6929" stroke-linejoin="round" stroke-miterlimit="10" fill="none" fill-rule="evenodd"/><path d="M863.802 1946 796.198 1946 792.748 1946.69 789.759 1948.75 787.92 1951.73 787 1955.17 787 2124.77 873 2124.77 873 1955.17 872.31 1951.73 870.241 1948.75 867.251 1946.69 863.802 1946Z" fill="#2A3280" fill-rule="evenodd"/><path d="M802.5 1976.5 858.646 1976.5" stroke="#FFFFFF" stroke-width="10.6929" stroke-linejoin="round" stroke-miterlimit="10" fill="none" fill-rule="evenodd"/><path d="M802.5 2084.5 859.268 2084.5M802.5 2105.27 859.268 2105.27" stroke="#FFFFFF" stroke-width="10.6929" stroke-linejoin="round" stroke-miterlimit="10" fill="none" fill-rule="evenodd"/><path d="M972.802 1946 905.198 1946 901.749 1946.69 898.76 1948.75 896.69 1951.73 896 1955.17 896 2124.77 982 2124.77 982 1955.17 981.08 1951.73 979.241 1948.75 976.251 1946.69 972.802 1946Z" fill="#2A3280" fill-rule="evenodd"/><path d="M911.5 1976.5 967.646 1976.5" stroke="#FFFFFF" stroke-width="10.6929" stroke-linejoin="round" stroke-miterlimit="10" fill="none" fill-rule="evenodd"/><path d="M911.5 2084.5 967.273 2084.5M911.5 2105.27 967.273 2105.27" stroke="#FFFFFF" stroke-width="10.6929" stroke-linejoin="round" stroke-miterlimit="10" fill="none" fill-rule="evenodd"/><path d="M1080.91 1946 1014.09 1946 1010.68 1946.69 1007.73 1948.75 1005.68 1951.73 1005 1955.17 1005 2124.77 1090 2124.77 1090 1955.17 1089.09 1951.73 1087.27 1948.75 1084.32 1946.69 1080.91 1946Z" fill="#2A3280" fill-rule="evenodd"/><path d="M1020.5 1976.5 1076.65 1976.5" stroke="#FFFFFF" stroke-width="10.6929" stroke-linejoin="round" stroke-miterlimit="10" fill="none" fill-rule="evenodd"/><path d="M1020.5 2084.5 1076.27 2084.5M1020.5 2105.27 1076.27 2105.27" stroke="#FFFFFF" stroke-width="10.6929" stroke-linejoin="round" stroke-miterlimit="10" fill="none" fill-rule="evenodd"/><path d="M1189.68 1946 1123.09 1946 1119.68 1946.69 1116.73 1948.75 1114.68 1951.73 1114 1955.17 1114 2124.77 1198.77 2124.77 1198.77 1955.17 1198.09 1951.73 1196.27 1948.75 1193.32 1946.69 1189.68 1946Z" fill="#2A3280" fill-rule="evenodd"/><path d="M1129.5 1976.5 1185.65 1976.5" stroke="#FFFFFF" stroke-width="10.6929" stroke-linejoin="round" stroke-miterlimit="10" fill="none" fill-rule="evenodd"/><path d="M1129.5 2084.5 1185.27 2084.5M1129.5 2105.27 1185.27 2105.27" stroke="#FFFFFF" stroke-width="10.6929" stroke-linejoin="round" stroke-miterlimit="10" fill="none" fill-rule="evenodd"/><path d="M1298.57 1946 1231.2 1946 1227.52 1946.69 1224.76 1948.75 1222.69 1951.73 1222 1955.17 1222 2124.77 1307.77 2124.77 1307.77 1955.17 1307.08 1951.73 1305.24 1948.75 1302.25 1946.69 1298.57 1946Z" fill="#2A3280" fill-rule="evenodd"/><path d="M1238.5 1976.5 1294.65 1976.5" stroke="#FFFFFF" stroke-width="10.6929" stroke-linejoin="round" stroke-miterlimit="10" fill="none" fill-rule="evenodd"/><path d="M1238.5 2084.5 1294.27 2084.5M1238.5 2105.27 1294.27 2105.27" stroke="#FFFFFF" stroke-width="10.6929" stroke-linejoin="round" stroke-miterlimit="10" fill="none" fill-rule="evenodd"/><text fill="#221E1F" font-family="Arial,Arial_MSFontService,sans-serif" font-weight="400" font-size="32" transform="matrix(1 0 0 1 837.833 1925)">Nodes</text></g></svg>