<svg width="490" height="487" xmlns="http://www.w3.org/2000/svg" xmlns:xlink="http://www.w3.org/1999/xlink" xml:space="preserve" overflow="hidden"><defs><clipPath id="clip0"><rect x="1677" y="1771" width="490" height="487"/></clipPath><clipPath id="clip1"><rect x="1678" y="1695" width="142" height="886"/></clipPath><clipPath id="clip2"><rect x="1678" y="1695" width="142" height="886"/></clipPath><clipPath id="clip3"><rect x="1850" y="1695" width="142" height="886"/></clipPath><clipPath id="clip4"><rect x="1850" y="1695" width="142" height="886"/></clipPath><clipPath id="clip5"><rect x="2023" y="1695" width="141" height="886"/></clipPath><clipPath id="clip6"><rect x="2023" y="1695" width="141" height="886"/></clipPath></defs><g clip-path="url(#clip0)" transform="translate(-1677 -1771)"><path d="M1678.88 2074.32 1819.59 2074.32 1819.59 2255.35 1678.88 2255.35Z" fill="#ECBAD6" fill-rule="evenodd"/><path d="M1850.99 2074.32 1991.7 2074.32 1991.7 2255.35 1850.99 2255.35Z" fill="#ECBAD6" fill-rule="evenodd"/><path d="M2023.09 2074.32 2163.8 2074.32 2163.8 2255.35 2023.09 2255.35Z" fill="#ECBAD6" fill-rule="evenodd"/><path d="M1749.47 2022.98 1749.47 2075.47" stroke="#010202" stroke-width="2.29167" stroke-linejoin="round" stroke-miterlimit="10" fill="none" fill-rule="evenodd"/><path d="M1819.59 2073.17 1819.59 2256.49" stroke="#221E1F" stroke-width="2.29167" stroke-linejoin="round" stroke-miterlimit="10" fill="none" fill-rule="evenodd"/><path d="M1850.99 2073.17 1850.99 2256.49" stroke="#221E1F" stroke-width="2.29167" stroke-linejoin="round" stroke-miterlimit="10" fill="none" fill-rule="evenodd"/><path d="M1921.34 1974.61 1921.34 2075.47" stroke="#010202" stroke-width="2.29167" stroke-linejoin="round" stroke-miterlimit="10" fill="none" fill-rule="evenodd"/><path d="M1991.7 2073.17 1991.7 2256.49" stroke="#221E1F" stroke-width="2.29167" stroke-linejoin="round" stroke-miterlimit="10" fill="none" fill-rule="evenodd"/><path d="M2023.09 2073.17 2023.09 2256.49" stroke="#221E1F" stroke-width="2.29167" stroke-linejoin="round" stroke-miterlimit="10" fill="none" fill-rule="evenodd"/><path d="M2093.22 2024.12 2093.22 2075.47" stroke="#010202" stroke-width="2.29167" stroke-linejoin="round" stroke-miterlimit="10" fill="none" fill-rule="evenodd"/><path d="M1748.32 2024.12 1922.49 2024.12" stroke="#010202" stroke-width="2.29167" stroke-linejoin="round" stroke-miterlimit="10" fill="none" fill-rule="evenodd"/><path d="M1677.74 2074.32 1820.74 2074.32" stroke="#221E1F" stroke-width="2.29167" stroke-linejoin="round" stroke-miterlimit="10" fill="none" fill-rule="evenodd"/><path d="M1849.84 2074.32 1992.84 2074.32" stroke="#221E1F" stroke-width="2.29167" stroke-linejoin="round" stroke-miterlimit="10" fill="none" fill-rule="evenodd"/><path d="M2021.95 2074.32 2164.95 2074.32" stroke="#221E1F" stroke-width="2.29167" stroke-linejoin="round" stroke-miterlimit="10" fill="none" fill-rule="evenodd"/><path d="M1678.88 2073.17 1678.88 2256.49" stroke="#221E1F" stroke-width="2.29167" stroke-linejoin="round" stroke-miterlimit="10" fill="none" fill-rule="evenodd"/><path d="M2163.8 2073.17 2163.8 2256.49" stroke="#221E1F" stroke-width="2.29167" stroke-linejoin="round" stroke-miterlimit="10" fill="none" fill-rule="evenodd"/><path d="M1677.74 2255.35 1820.74 2255.35" stroke="#221E1F" stroke-width="2.29167" stroke-linejoin="round" stroke-miterlimit="10" fill="none" fill-rule="evenodd"/><path d="M1849.84 2255.35 1992.84 2255.35" stroke="#221E1F" stroke-width="2.29167" stroke-linejoin="round" stroke-miterlimit="10" fill="none" fill-rule="evenodd"/><path d="M2021.95 2255.35 2164.95 2255.35" stroke="#221E1F" stroke-width="2.29167" stroke-linejoin="round" stroke-miterlimit="10" fill="none" fill-rule="evenodd"/><g clip-path="url(#clip1)"><text fill="#231F20" font-family="Arial,Arial_MSFontService,sans-serif" font-weight="700" font-size="32" transform="matrix(1 0 0 1 1694.01 2156)">Worker</text></g><g clip-path="url(#clip2)"><text fill="#231F20" font-family="Arial,Arial_MSFontService,sans-serif" font-weight="400" font-size="32" transform="matrix(1 0 0 1 1697.22 2194)">kubelet</text></g><g clip-path="url(#clip3)"><text fill="#231F20" font-family="Arial,Arial_MSFontService,sans-serif" font-weight="700" font-size="32" transform="matrix(1 0 0 1 1866.11 2156)">Worker</text></g><g clip-path="url(#clip4)"><text fill="#231F20" font-family="Arial,Arial_MSFontService,sans-serif" font-weight="400" font-size="32" transform="matrix(1 0 0 1 1869.32 2194)">kubelet</text></g><g clip-path="url(#clip5)"><text fill="#231F20" font-family="Arial,Arial_MSFontService,sans-serif" font-weight="700" font-size="32" transform="matrix(1 0 0 1 2038.22 2156)">Worker</text></g><g clip-path="url(#clip6)"><text fill="#231F20" font-family="Arial,Arial_MSFontService,sans-serif" font-weight="400" font-size="32" transform="matrix(1 0 0 1 2041.65 2194)">kubelet</text></g><rect x="1711" y="1772" width="424" height="182" stroke="#221E1F" stroke-width="2.29167" stroke-linejoin="round" stroke-miterlimit="10" fill="#8AB7DF"/><text fill="#231F20" font-family="Arial,Arial_MSFontService,sans-serif" font-weight="700" font-size="32" transform="matrix(1 0 0 1 1823.09 1813)">Control<tspan font-size="32" x="118.594" y="0">plane  </tspan><tspan font-weight="400" font-size="32" x="26.0563" y="39">API server  </tspan><tspan font-weight="400" font-size="32" x="29.2188" y="77">Scheduler</tspan><tspan font-weight="400" font-size="32" x="-35.1771" y="116">Controller manager</tspan></text><path d="M1922.9 1954 1916 1978.86 1929.79 1978.86 1922.9 1954Z" fill="#010202" fill-rule="evenodd"/><path d="M2096.81 2021.95 1923 2021.95C1922.37 2021.95 1921.85 2021.44 1921.85 2020.81L1921.85 1976.92 1924.15 1976.92 1924.15 2020.81 1923 2019.66 2096.81 2019.66ZM1909.25 1981.5 1923 1954 1936.75 1981.5Z"/></g></svg>