<svg width="704" height="1833" xmlns="http://www.w3.org/2000/svg" xmlns:xlink="http://www.w3.org/1999/xlink" xml:space="preserve" overflow="hidden"><defs><clipPath id="clip0"><rect x="1426" y="726" width="704" height="1833"/></clipPath></defs><g clip-path="url(#clip0)" transform="translate(-1426 -726)"><path d="M2077.71 727 1478.52 727 1462.26 729.98 1448.29 738.689 1437.07 751.524 1429.75 768.026 1427 786.82 1427 2189.95 1429.75 2208.97 1437.07 2225.25 1448.29 2238.31 1462.26 2246.79 1478.52 2250 2077.71 2250 2093.97 2246.79 2107.94 2238.31 2119.15 2225.25 2126.48 2208.97 2129 2189.95 2129 786.82 2126.48 768.026 2119.15 751.524 2107.94 738.689 2093.97 729.98 2077.71 727Z" fill="#C7ACD2" fill-rule="evenodd"/><path d="M2129 2189.95 2126.48 2208.97 2119.15 2225.25 2107.94 2238.31 2093.97 2246.79 2077.71 2250 1478.52 2250 1462.26 2246.79 1448.29 2238.31 1437.07 2225.25 1429.75 2208.97 1427 2189.95 1427 786.82 1429.75 768.026 1437.07 751.524 1448.29 738.689 1462.26 729.98 1478.52 727 2077.71 727 2093.97 729.98 2107.94 738.689 2119.15 751.524 2126.48 768.026 2129 786.82 2129 2189.95Z" stroke="#221E1F" stroke-width="2.29167" stroke-linejoin="round" stroke-miterlimit="10" fill="none" fill-rule="evenodd"/><path d="M2002.67 812 1553.33 812 1538.65 814.75 1526.04 822.313 1515.95 834.001 1509.29 848.898 1507 865.857 1507 2111.91 1509.29 2128.87 1515.95 2143.54 1526.04 2155.23 1538.65 2163.02 1553.33 2165.77 2002.67 2165.77 2017.12 2163.02 2029.96 2155.23 2040.05 2143.54 2046.48 2128.87 2049 2111.91 2049 865.857 2046.48 848.898 2040.05 834.001 2029.96 822.313 2017.12 814.75 2002.67 812Z" fill="#C2DB75" fill-rule="evenodd"/><path d="M2049 2111.91 2046.48 2128.87 2040.05 2143.54 2029.96 2155.23 2017.12 2163.02 2002.67 2165.77 1553.33 2165.77 1538.65 2163.02 1526.04 2155.23 1515.95 2143.54 1509.29 2128.87 1507 2111.91 1507 865.857 1509.29 848.898 1515.95 834.001 1526.04 822.313 1538.65 814.75 1553.33 812 2002.67 812 2017.12 814.75 2029.96 822.313 2040.05 834.001 2046.48 848.898 2049 865.857 2049 2111.91Z" stroke="#221E1F" stroke-width="2.29167" stroke-linejoin="round" stroke-miterlimit="10" fill="none" fill-rule="evenodd"/><path d="M1956.81 904 1598.96 904 1584.5 907.439 1572.79 916.608 1564.98 930.362 1562 947.096 1562 2031.13 1564.98 2047.87 1572.79 2061.39 1584.5 2070.56 1598.96 2074 1956.81 2074 1971.05 2070.56 1982.98 2061.39 1990.79 2047.87 1993.77 2031.13 1993.77 947.096 1990.79 930.362 1982.98 916.608 1971.05 907.439 1956.81 904Z" fill="#F26E60" fill-rule="evenodd"/><path d="M1993.77 2031.13 1990.79 2047.87 1982.98 2061.39 1971.05 2070.56 1956.81 2074 1598.96 2074 1584.5 2070.56 1572.79 2061.39 1564.98 2047.87 1562 2031.13 1562 947.096 1564.98 930.362 1572.79 916.608 1584.5 907.439 1598.96 904 1956.81 904 1971.05 907.439 1982.98 916.608 1990.79 930.362 1993.77 947.096 1993.77 2031.13Z" stroke="#221E1F" stroke-width="2.29167" stroke-linejoin="round" stroke-miterlimit="10" fill="none" fill-rule="evenodd"/><path d="M1917.14 1007 1638.63 1007 1627.64 1009.75 1618.47 1016.86 1612.29 1027.63 1610 1040.47 1610 1937.3 1612.29 1950.37 1618.47 1960.91 1627.64 1968.25 1638.63 1970.77 1917.14 1970.77 1928.36 1968.25 1937.53 1960.91 1943.71 1950.37 1946 1937.3 1946 1040.47 1943.71 1027.63 1937.53 1016.86 1928.36 1009.75 1917.14 1007Z" fill="#6BA5D7" fill-rule="evenodd"/><path d="M1946 1937.3 1943.71 1950.37 1937.53 1960.91 1928.36 1968.25 1917.14 1970.77 1638.63 1970.77 1627.64 1968.25 1618.47 1960.91 1612.29 1950.37 1610 1937.3 1610 1040.47 1612.29 1027.63 1618.47 1016.86 1627.64 1009.75 1638.63 1007 1917.14 1007 1928.36 1009.75 1937.53 1016.86 1943.71 1027.63 1946 1040.47 1946 1937.3Z" stroke="#221E1F" stroke-width="2.29167" stroke-linejoin="round" stroke-miterlimit="10" fill="none" fill-rule="evenodd"/><path d="M1685 2237 1427 2237 1427 2535.78 1449.21 2548.15 1464.77 2551.36 1484 2554.1 1505.75 2555.94 1530.02 2557.31 1556.11 2557.77 1581.98 2557.31 1606.25 2555.94 1628.23 2554.1 1647.23 2551.36 1663.02 2548.15 1682.48 2540.13 1685 2535.78 1685 2237Z" fill="#C7ACD2" fill-rule="evenodd"/><path d="M1427 2237 1427 2535.78 1429.75 2540.13 1449.21 2548.15 1464.77 2551.36 1484 2554.1 1505.75 2555.94 1530.02 2557.31 1556.11 2557.77 1581.98 2557.31 1606.25 2555.94 1628.23 2554.1 1647.23 2551.36 1663.02 2548.15 1682.48 2540.13 1685 2535.78 1685 2237 1427 2237Z" stroke="#221E1F" stroke-width="2.29167" stroke-linejoin="round" stroke-miterlimit="10" fill="none" fill-rule="evenodd"/><path d="M1556.11 2216 1530.02 2216.46 1505.75 2217.83 1484 2219.9 1464.77 2222.42 1449.21 2225.63 1429.75 2233.65 1427 2238 1429.75 2242.35 1449.21 2250.38 1464.77 2253.58 1484 2256.33 1505.75 2258.4 1530.02 2259.54 1556.11 2260 1581.98 2259.54 1606.25 2258.4 1628.23 2256.33 1647.23 2253.58 1663.02 2250.38 1682.48 2242.35 1685 2238 1682.48 2233.65 1663.02 2225.63 1647.23 2222.42 1628.23 2219.9 1606.25 2217.83 1581.98 2216.46 1556.11 2216Z" fill="#C7ACD2" fill-rule="evenodd"/><path d="M1685 2238 1663.02 2250.38 1647.23 2253.58 1628.23 2256.33 1606.25 2258.4 1581.98 2259.54 1556.11 2260 1530.02 2259.54 1505.75 2258.4 1484 2256.33 1464.77 2253.58 1449.21 2250.38 1429.75 2242.35 1427 2238 1429.75 2233.65 1449.21 2225.63 1464.77 2222.42 1484 2219.9 1505.75 2217.83 1530.02 2216.46 1556.11 2216 1581.98 2216.46 1606.25 2217.83 1628.23 2219.9 1647.23 2222.42 1663.02 2225.63 1682.48 2233.65 1685 2238Z" stroke="#221E1F" stroke-width="2.29167" stroke-linejoin="round" stroke-miterlimit="10" fill="none" fill-rule="evenodd"/><text fill="#231F20" font-family="Arial,Arial_MSFontService,sans-serif" font-weight="400" font-size="32" transform="matrix(1 0 0 1 1641.64 1913)">Application runtime <tspan font-size="32" x="49.0646" y="38">and libraries</tspan><tspan font-size="32" x="-65.8396" y="99">System libraries that interact </tspan><tspan font-size="32" x="26.8583" y="138">with application</tspan><tspan font-size="32" x="-68.8646" y="214">Operating system and kernel </tspan><tspan font-size="32" x="53.9688" y="296">Host server</tspan><tspan font-size="32" x="-146.552" y="484">Storage</tspan></text><rect x="1871" y="2224" width="258" height="326" stroke="#221E1F" stroke-width="2.29167" stroke-miterlimit="8" fill="#C7ACD2"/><text fill="#0000FF" font-family="Arial,Arial_MSFontService,sans-serif" font-weight="400" font-size="32" transform="matrix(1 0 0 1 1918.03 2317)">Host server</text><path d="M1917.92 2320.6 1972.58 2320.6 2027.25 2320.6 2081.92 2320.6 2081.92 2322.6 2027.25 2322.6 1972.58 2322.6 1917.92 2322.6Z" fill="#0000FF" fill-rule="evenodd"/><text fill="#231F20" font-family="Arial,Arial_MSFontService,sans-serif" font-weight="400" font-size="32" transform="matrix(1 0 0 1 1915.31 2355)">applications <tspan font-size="32" x="-8.89172" y="38">(for example, </tspan><tspan font-size="32" x="1.7417" y="76">logging and </tspan><tspan font-size="32" x="24.1312" y="115">security)</tspan></text><rect x="1678" y="1100" width="199" height="778" stroke="#221E1F" stroke-width="2.29167" stroke-miterlimit="8" fill="#E1ECF7"/><text fill="#231F20" font-family="Arial,Arial_MSFontService,sans-serif" font-weight="400" font-size="32" transform="matrix(1 0 0 1 1743.96 1486)">Your <tspan font-size="32" x="-44.2291" y="39">application</tspan></text></g></svg>