<svg width="1247" height="1650" xmlns="http://www.w3.org/2000/svg" xmlns:xlink="http://www.w3.org/1999/xlink" xml:space="preserve" overflow="hidden"><defs><clipPath id="clip0"><rect x="448" y="248" width="1247" height="1650"/></clipPath></defs><g clip-path="url(#clip0)" transform="translate(-448 -248)"><path d="M600 248 600 723.89 1599.8 723.89" stroke="#010202" stroke-width="2.29167" stroke-linejoin="round" stroke-miterlimit="10" fill="none" fill-rule="evenodd"/><path d="M600 818 600 1293.89 1599.8 1293.89" stroke="#010202" stroke-width="2.29167" stroke-linejoin="round" stroke-miterlimit="10" fill="none" fill-rule="evenodd"/><path d="M600 1388 600 1863.89 1599.8 1863.89" stroke="#010202" stroke-width="2.29167" stroke-linejoin="round" stroke-miterlimit="10" fill="none" fill-rule="evenodd"/><path d="M600.5 669.408 740.118 669.408 740.118 635.235 892.319 635.235 892.319 610.668 917.496 610.668 917.496 593.582 952.968 593.582 952.968 578.626 975.856 578.626 975.856 559.404 1009.31 559.404 1009.31 541.249 1323.75 541.249 1323.75 495.324 1346.64 495.324 1346.64 464.35 1362.66 464.35 1362.66 457.942 1392.42 457.942 1392.42 442.991 1412.44 442.991 1412.44 417.362 1426.74 417.362 1426.74 400.27 1461.65 400.27 1461.65 379.444 1487.97 379.444 1487.97 350.074 1517.15 350.074 1517.15 326.579 1537.75 326.579 1537.75 297.21 1554.34 297.21 1554.34 262.5 1641.32 262.5" stroke="#010202" stroke-width="4.58333" stroke-linejoin="round" stroke-miterlimit="10" fill="none" fill-rule="evenodd"/><path d="M600.5 1236.28 764.135 1236.28 764.135 1205.24 1323.47 1205.24 1323.47 1220.76 1501.04 1220.76 1501.04 1168.03 1536.18 1168.03 1536.18 1157.59 1580.65 1157.59 1580.65 1135.91 1598.78 1135.91 1598.78 1113.42 1637.49 1113.42 1637.49 1094.15 1664.67 1094.15 1664.67 1080.5 1694.32 1080.5" stroke="#010202" stroke-width="4.58333" stroke-linejoin="round" stroke-miterlimit="10" fill="none" fill-rule="evenodd"/><path d="M600.5 1864.45 642.962 1864.45 642.962 1821.5 1009.07 1821.5 1009.07 1864.45 1323.45 1864.45 1323.45 1821.5 1600.3 1821.5" stroke="#010202" stroke-width="4.58333" stroke-linejoin="round" stroke-miterlimit="10" fill="none" fill-rule="evenodd"/><path d="M1600 248 1600 1883.9" stroke="#010202" stroke-width="2.29167" stroke-linejoin="round" stroke-miterlimit="10" fill="none" fill-rule="evenodd"/><path d="M1009 248 1009 1883.9" stroke="#010202" stroke-width="2.29167" stroke-linejoin="round" stroke-miterlimit="10" fill="none" fill-rule="evenodd"/><path d="M1323 248 1323 1883.9" stroke="#010202" stroke-width="2.29167" stroke-linejoin="round" stroke-miterlimit="10" fill="none" fill-rule="evenodd"/><text fill="#221E1F" font-family="Arial,Arial_MSFontService,sans-serif" font-weight="400" font-size="32" transform="matrix(6.12323e-17 -1 1 6.12323e-17 531.428 626)"># <tspan font-size="32" x="26" y="-1.59204e-15">of </tspan><tspan font-size="32" x="63" y="-3.85764e-15">responses</tspan><tspan font-size="32" x="216" y="-1.32262e-14">total</tspan></text><text fill="#221E1F" font-family="Arial,Arial_MSFontService,sans-serif" font-weight="400" font-size="32" transform="matrix(1 0 0 1 1094.53 401)">Downtime  <tspan font-size="32" x="39.4168" y="43">(flat)</tspan><tspan font-size="32" x="0" y="1379">Downtime  </tspan><tspan font-size="32" x="48.3543" y="1422">(Ø)</tspan><tspan font-size="32" x="-535.026" y="1427">1</tspan><tspan font-size="32" x="-535.026" y="1470">0</tspan><tspan fill="#474749" font-size="32" x="514.561" y="361">10s</tspan><tspan fill="#474749" font-size="32" x="514.561" y="931">10s</tspan></text><text fill="#221E1F" font-family="Arial,Arial_MSFontService,sans-serif" font-weight="400" font-size="32" transform="matrix(6.12323e-17 -1 1 6.12323e-17 531.428 1221)"># <tspan font-size="32" x="26" y="-1.59204e-15">of </tspan><tspan font-size="32" x="62" y="-3.79641e-15">responses by label</tspan><tspan font-size="32" x="-574" y="-41.8323">Response </tspan><tspan font-size="32" x="-423" y="-41.8323">status</tspan><tspan font-size="32" x="-329" y="-41.8323">gauge  </tspan><tspan font-size="32" x="-495" y="1.19061">(PØ</tspan><tspan font-size="32" x="-429" y="1.19061">second)</tspan></text><path d="M1024 520.894 1024 470 1116.53 470 1119.05 486.883 1132.85 470 1141.93 486.883 1148.58 470 1307.93 470 1307.93 520.894" stroke="#010202" stroke-width="2.29167" stroke-linejoin="round" stroke-miterlimit="10" fill="none" fill-rule="evenodd"/><path d="M883 1189 883 1204.9" stroke="#010202" stroke-width="2.29167" stroke-linejoin="round" stroke-miterlimit="10" stroke-dasharray="2.29167 2.29167" fill="none" fill-rule="evenodd"/><path d="M883 1188 883 1183 888 1183" stroke="#010202" stroke-width="2.29167" stroke-linejoin="round" stroke-miterlimit="10" fill="none" fill-rule="evenodd"/><path d="M892 1183 902.959 1183" stroke="#010202" stroke-width="2.29167" stroke-linejoin="round" stroke-miterlimit="10" stroke-dasharray="2.29167 2.29167" fill="none" fill-rule="evenodd"/><path d="M905 1183 910 1183 910 1179" stroke="#010202" stroke-width="2.29167" stroke-linejoin="round" stroke-miterlimit="10" fill="none" fill-rule="evenodd"/><path d="M910 1169 910 1164 915 1164" stroke="#010202" stroke-width="2.29167" stroke-linejoin="round" stroke-miterlimit="10" fill="none" fill-rule="evenodd"/><path d="M918 1164 938.855 1164" stroke="#010202" stroke-width="2.29167" stroke-linejoin="round" stroke-miterlimit="10" stroke-dasharray="2.29167 2.29167" fill="none" fill-rule="evenodd"/><path d="M941 1164 945 1164 945 1159" stroke="#010202" stroke-width="2.29167" stroke-linejoin="round" stroke-miterlimit="10" fill="none" fill-rule="evenodd"/><path d="M945 1155.79 945 1147" stroke="#010202" stroke-width="2.29167" stroke-linejoin="round" stroke-miterlimit="10" stroke-dasharray="2.29167 2.29167" fill="none" fill-rule="evenodd"/><path d="M945 1145 945 1141 950 1141" stroke="#010202" stroke-width="2.29167" stroke-linejoin="round" stroke-miterlimit="10" fill="none" fill-rule="evenodd"/><path d="M954 1141 964.958 1141" stroke="#010202" stroke-width="2.29167" stroke-linejoin="round" stroke-miterlimit="10" stroke-dasharray="2.29167 2.29167" fill="none" fill-rule="evenodd"/><path d="M967 1141 972 1141 972 1136" stroke="#010202" stroke-width="2.29167" stroke-linejoin="round" stroke-miterlimit="10" fill="none" fill-rule="evenodd"/><path d="M972 1131.99 972 1122" stroke="#010202" stroke-width="2.29167" stroke-linejoin="round" stroke-miterlimit="10" stroke-dasharray="2.29167 2.29167" fill="none" fill-rule="evenodd"/><path d="M972 1119 972 1115 977 1115" stroke="#010202" stroke-width="2.29167" stroke-linejoin="round" stroke-miterlimit="10" fill="none" fill-rule="evenodd"/><path d="M981 1115 1351.78 1115" stroke="#010202" stroke-width="2.29167" stroke-linejoin="round" stroke-miterlimit="10" stroke-dasharray="6.875 2.29167" fill="none" fill-rule="evenodd"/><path d="M1354 1115 1359 1115 1359 1110" stroke="#010202" stroke-width="2.29167" stroke-linejoin="round" stroke-miterlimit="10" fill="none" fill-rule="evenodd"/><path d="M1359 1101 1359 1097 1364 1097" stroke="#010202" stroke-width="2.29167" stroke-linejoin="round" stroke-miterlimit="10" fill="none" fill-rule="evenodd"/><path d="M1369 1097 1381.89 1097" stroke="#010202" stroke-width="2.29167" stroke-linejoin="round" stroke-miterlimit="10" stroke-dasharray="6.875 2.29167" fill="none" fill-rule="evenodd"/><path d="M1384 1097 1389 1097 1389 1092" stroke="#010202" stroke-width="2.29167" stroke-linejoin="round" stroke-miterlimit="10" fill="none" fill-rule="evenodd"/><path d="M1389 1082 1389 1078 1394 1078" stroke="#010202" stroke-width="2.29167" stroke-linejoin="round" stroke-miterlimit="10" fill="none" fill-rule="evenodd"/><path d="M1397 1078 1418.78 1078" stroke="#010202" stroke-width="2.29167" stroke-linejoin="round" stroke-miterlimit="10" stroke-dasharray="2.29167 2.29167" fill="none" fill-rule="evenodd"/><path d="M1421 1078 1425 1078 1425 1073" stroke="#010202" stroke-width="2.29167" stroke-linejoin="round" stroke-miterlimit="10" fill="none" fill-rule="evenodd"/><path d="M1425 1067.94 1425 1057" stroke="#010202" stroke-width="2.29167" stroke-linejoin="round" stroke-miterlimit="10" stroke-dasharray="6.875 2.29167" fill="none" fill-rule="evenodd"/><path d="M1425 1054 1425 1050 1430 1050" stroke="#010202" stroke-width="2.29167" stroke-linejoin="round" stroke-miterlimit="10" fill="none" fill-rule="evenodd"/><path d="M1434 1050 1457.78 1050" stroke="#010202" stroke-width="2.29167" stroke-linejoin="round" stroke-miterlimit="10" stroke-dasharray="2.29167 2.29167" fill="none" fill-rule="evenodd"/><path d="M1460 1050 1465 1050 1465 1045" stroke="#010202" stroke-width="2.29167" stroke-linejoin="round" stroke-miterlimit="10" fill="none" fill-rule="evenodd"/><path d="M1465 1035 1465 1031 1469 1031" stroke="#010202" stroke-width="2.29167" stroke-linejoin="round" stroke-miterlimit="10" fill="none" fill-rule="evenodd"/><path d="M1474 1031 1686.87 1031" stroke="#010202" stroke-width="2.29167" stroke-linejoin="round" stroke-miterlimit="10" stroke-dasharray="2.29167 2.29167" fill="none" fill-rule="evenodd"/><path d="M1099 1183.84 1099 1158 1169.91 1158" stroke="#010202" stroke-width="2.29167" stroke-linejoin="round" stroke-miterlimit="10" fill="none" fill-rule="evenodd"/><path d="M1105.8 1180 1093 1180 1099.4 1204.86 1105.8 1180Z" fill="#010202" fill-rule="evenodd"/><text fill="#221E1F" font-family="Arial,Arial_MSFontService,sans-serif" font-weight="400" font-size="32" transform="matrix(1 0 0 1 1094.53 973)">Downtime  <tspan font-size="32" x="39.4168" y="43">(flat)</tspan><tspan font-size="32" x="84.5625" y="103">200</tspan><tspan font-size="32" x="84.5625" y="194">500</tspan></text><path d="M1099 1094.84 1099 1068 1169.91 1068" stroke="#010202" stroke-width="2.29167" stroke-linejoin="round" stroke-miterlimit="10" fill="none" fill-rule="evenodd"/><path d="M1105.8 1090 1093 1090 1099.4 1114.87 1105.8 1090Z" fill="#010202" fill-rule="evenodd"/><path d="M600 1864 587 1864" stroke="#010202" stroke-width="2.29167" stroke-linejoin="round" stroke-miterlimit="10" fill="none" fill-rule="evenodd"/><path d="M600 1821 587 1821" stroke="#010202" stroke-width="2.29167" stroke-linejoin="round" stroke-miterlimit="10" fill="none" fill-rule="evenodd"/></g></svg>